<?xml version="1.0" encoding="UTF-8"?>
<!DOCTYPE svg
PUBLIC "-//W3C//DTD SVG 1.1//EN"
       "http://www.w3.org/Graphics/SVG/1.1/DTD/svg11.dtd">
<svg viewBox="72 32 613 529" width="541px" height="497px" xmlns="http://www.w3.org/2000/svg" version="1.1">
   <line x1="103" y1="420" x2="93" y2="420" style="stroke:#333;stroke-width:1;"/>
   <line x1="93" y1="360" x2="103" y2="360" style="stroke:#333;stroke-width:1;"/>
   <line x1="93" y1="420" x2="93" y2="360" style="stroke:#333;stroke-width:1;"/>
   <line x1="95.5" y1="420" x2="99.035533905933" y2="423.53553390593" style="stroke:#333;stroke-width:2;"/>
   <line x1="95.5" y1="420" x2="99.035533905933" y2="416.46446609407" style="stroke:#333;stroke-width:2;"/>
   <line x1="98" y1="360" x2="94.464466094067" y2="363.53553390593" style="stroke:#333;stroke-width:2;"/>
   <line x1="98" y1="360" x2="94.464466094067" y2="356.46446609407" style="stroke:#333;stroke-width:2;"/>
   <line x1="218" y1="440" x2="228" y2="440" style="stroke:#c00;stroke-width:1;"/>
   <line x1="228" y1="77" x2="218" y2="77" style="stroke:#c00;stroke-width:1;"/>
   <line x1="228" y1="440" x2="228" y2="77" style="stroke:#c00;stroke-width:1;"/>
   <line x1="225.5" y1="440" x2="221.96446609407" y2="443.53553390593" style="stroke:#c00;stroke-width:2;"/>
   <line x1="225.5" y1="440" x2="221.96446609407" y2="436.46446609407" style="stroke:#c00;stroke-width:2;"/>
   <line x1="223" y1="77" x2="226.53553390593" y2="80.535533905933" style="stroke:#c00;stroke-width:2;"/>
   <line x1="223" y1="77" x2="226.53553390593" y2="73.464466094067" style="stroke:#c00;stroke-width:2;"/>
   <line x1="480" y1="504" x2="470" y2="504" style="stroke:#0bf;stroke-width:1;"/>
   <line x1="512" y1="259" x2="502" y2="259" style="stroke:#0bf;stroke-width:1;"/>
   <line x1="470" y1="504" x2="512" y2="259" style="stroke:#0bf;stroke-width:1;"/>
   <line x1="472.5" y1="504" x2="476.03553390593" y2="507.53553390593" style="stroke:#0bf;stroke-width:2;"/>
   <line x1="472.5" y1="504" x2="476.03553390593" y2="500.46446609407" style="stroke:#0bf;stroke-width:2;"/>
   <line x1="507" y1="259" x2="510.53553390593" y2="262.53553390593" style="stroke:#0bf;stroke-width:2;"/>
   <line x1="507" y1="259" x2="510.53553390593" y2="255.46446609407" style="stroke:#0bf;stroke-width:2;"/>
   <line x1="489" y1="174" x2="499" y2="174" style="stroke:#0bf;stroke-width:1;"/>
   <line x1="470" y1="464" x2="480" y2="464" style="stroke:#0bf;stroke-width:1;"/>
   <line x1="499" y1="174" x2="470" y2="464" style="stroke:#0bf;stroke-width:1;"/>
   <line x1="496.5" y1="174" x2="492.96446609407" y2="177.53553390593" style="stroke:#0bf;stroke-width:2;"/>
   <line x1="496.5" y1="174" x2="492.96446609407" y2="170.46446609407" style="stroke:#0bf;stroke-width:2;"/>
   <line x1="475" y1="464" x2="471.46446609407" y2="467.53553390593" style="stroke:#0bf;stroke-width:2;"/>
   <line x1="475" y1="464" x2="471.46446609407" y2="460.46446609407" style="stroke:#0bf;stroke-width:2;"/>
   <line x1="489" y1="194" x2="499" y2="194" style="stroke:#c00;stroke-width:1;"/>
   <line x1="440" y1="101" x2="450" y2="101" style="stroke:#c00;stroke-width:1;"/>
   <line x1="499" y1="194" x2="440" y2="101" style="stroke:#c00;stroke-width:1;"/>
   <line x1="496.5" y1="194" x2="492.96446609407" y2="197.53553390593" style="stroke:#c00;stroke-width:2;"/>
   <line x1="496.5" y1="194" x2="492.96446609407" y2="190.46446609407" style="stroke:#c00;stroke-width:2;"/>
   <line x1="445" y1="101" x2="441.46446609407" y2="104.53553390593" style="stroke:#c00;stroke-width:2;"/>
   <line x1="445" y1="101" x2="441.46446609407" y2="97.464466094067" style="stroke:#c00;stroke-width:2;"/>
   <rect width="100" height="20" x="402" y="229" style="fill:#007;stroke:black;"/>
   <text width="100" height="20" x="407" y="243" style="fill:#fff;" font-family="Arial" font-size="16px"> CLIENTES</text>
   <rect width="100" height="20" x="402" y="249" style="fill:#aea;stroke:black;"/>
   <text width="100" height="20" x="407" y="263" style="fill:black;" font-family="Arial" font-size="16px">COD</text>
   <rect width="100" height="20" x="402" y="269" style="fill:none;stroke:black;"/>
   <text width="100" height="20" x="407" y="283" style="fill:black;" font-family="Arial" font-size="16px">NOMBRE</text>
   <rect width="100" height="20" x="402" y="289" style="fill:none;stroke:black;"/>
   <text width="100" height="20" x="407" y="303" style="fill:black;" font-family="Arial" font-size="16px">DIRECCION</text>
   <rect width="115" height="20" x="103" y="330" style="fill:#007;stroke:black;"/>
   <text width="115" height="20" x="108" y="344" style="fill:#fff;" font-family="Arial" font-size="16px"> EMPLEADOS</text>
   <rect width="115" height="20" x="103" y="350" style="fill:#aea;stroke:black;"/>
   <text width="115" height="20" x="108" y="364" style="fill:black;" font-family="Arial" font-size="16px">COD</text>
   <rect width="115" height="20" x="103" y="370" style="fill:none;stroke:black;"/>
   <text width="115" height="20" x="108" y="384" style="fill:black;" font-family="Arial" font-size="16px">NOMBRE</text>
   <rect width="115" height="20" x="103" y="390" style="fill:none;stroke:black;"/>
   <text width="115" height="20" x="108" y="404" style="fill:black;" font-family="Arial" font-size="16px">DIRECCION</text>
   <rect width="115" height="20" x="103" y="410" style="fill:none;stroke:black;"/>
   <text width="115" height="20" x="108" y="424" style="fill:black;" font-family="Arial" font-size="16px">COD_JEFE</text>
   <rect width="115" height="20" x="103" y="430" style="fill:none;stroke:black;"/>
   <text width="115" height="20" x="108" y="444" style="fill:black;" font-family="Arial" font-size="16px">COD_OFICINA</text>
   <rect width="131" height="20" x="87" y="47" style="fill:#007;stroke:black;"/>
   <text width="131" height="20" x="92" y="61" style="fill:#fff;" font-family="Arial" font-size="16px"> OFICINAS</text>
   <rect width="131" height="20" x="87" y="67" style="fill:#aea;stroke:black;"/>
   <text width="131" height="20" x="92" y="81" style="fill:black;" font-family="Arial" font-size="16px">COD</text>
   <rect width="131" height="20" x="87" y="87" style="fill:none;stroke:black;"/>
   <text width="131" height="20" x="92" y="101" style="fill:black;" font-family="Arial" font-size="16px">CIUDAD</text>
   <rect width="131" height="20" x="87" y="107" style="fill:none;stroke:black;"/>
   <text width="131" height="20" x="92" y="121" style="fill:black;" font-family="Arial" font-size="16px">PRESUPUESTO</text>
   <rect width="131" height="20" x="87" y="127" style="fill:none;stroke:black;"/>
   <text width="131" height="20" x="92" y="141" style="fill:black;" font-family="Arial" font-size="16px">NUM_PUESTOS</text>
   <rect width="131" height="20" x="87" y="147" style="fill:none;stroke:black;"/>
   <text width="131" height="20" x="92" y="161" style="fill:black;" font-family="Arial" font-size="16px">TIPO</text>
   <rect width="118" height="20" x="480" y="434" style="fill:#007;stroke:black;"/>
   <text width="118" height="20" x="485" y="448" style="fill:#fff;" font-family="Arial" font-size="16px"> PEDIDOS</text>
   <rect width="118" height="20" x="480" y="454" style="fill:#aea;stroke:black;"/>
   <text width="118" height="20" x="485" y="468" style="fill:black;" font-family="Arial" font-size="16px">COD</text>
   <rect width="118" height="20" x="480" y="474" style="fill:none;stroke:black;"/>
   <text width="118" height="20" x="485" y="488" style="fill:black;" font-family="Arial" font-size="16px">FECHA</text>
   <rect width="118" height="20" x="480" y="494" style="fill:none;stroke:black;"/>
   <text width="118" height="20" x="485" y="508" style="fill:black;" font-family="Arial" font-size="16px">COD_CLIENTE</text>
   <rect width="191" height="20" x="298" y="144" style="fill:#007;stroke:black;"/>
   <text width="191" height="20" x="303" y="158" style="fill:#fff;" font-family="Arial" font-size="16px"> PEDIDOS_PRODUCTOS</text>
   <rect width="191" height="20" x="298" y="164" style="fill:#aea;stroke:black;"/>
   <text width="191" height="20" x="303" y="178" style="fill:black;" font-family="Arial" font-size="16px">COD_PEDIDO</text>
   <rect width="191" height="20" x="298" y="184" style="fill:#aea;stroke:black;"/>
   <text width="191" height="20" x="303" y="198" style="fill:black;" font-family="Arial" font-size="16px">COD_PRODUCTO</text>
   <rect width="191" height="20" x="298" y="204" style="fill:none;stroke:black;"/>
   <text width="191" height="20" x="303" y="218" style="fill:black;" font-family="Arial" font-size="16px">UNIDADES</text>
   <rect width="108" height="20" x="450" y="71" style="fill:#007;stroke:black;"/>
   <text width="108" height="20" x="455" y="85" style="fill:#fff;" font-family="Arial" font-size="16px"> PRODUCTOS</text>
   <rect width="108" height="20" x="450" y="91" style="fill:#aea;stroke:black;"/>
   <text width="108" height="20" x="455" y="105" style="fill:black;" font-family="Arial" font-size="16px">COD</text>
   <rect width="108" height="20" x="450" y="111" style="fill:none;stroke:black;"/>
   <text width="108" height="20" x="455" y="125" style="fill:black;" font-family="Arial" font-size="16px">NOMBRE</text>
   <rect width="108" height="20" x="450" y="131" style="fill:none;stroke:black;"/>
   <text width="108" height="20" x="455" y="145" style="fill:black;" font-family="Arial" font-size="16px">PVP</text>
   <rect width="108" height="20" x="450" y="151" style="fill:none;stroke:black;"/>
   <text width="108" height="20" x="455" y="165" style="fill:black;" font-family="Arial" font-size="16px">STOCK</text>
</svg>
